<?xml version="1.0" standalone="no"?>
<!DOCTYPE svg PUBLIC "-//W3C//DTD SVG 20010904//EN"
 "http://www.w3.org/TR/2001/REC-SVG-20010904/DTD/svg10.dtd">
<svg version="1.0" xmlns="http://www.w3.org/2000/svg"
 width="75px" height="75px" viewBox="0 0 186.000000 186.000000"
 preserveAspectRatio="xMidYMid meet">
<metadata>
Created by potrace 1.16, written by Peter Selinger 2001-2019
</metadata><g><rect x="0" y="0" width="186" height="186" fill="#ffffff" fill-opacity="0" stroke-opacity="0" />
<g transform="translate(0.000000,186.000000) scale(0.050000,-0.050000)"
fill="#020304" stroke="none">
<path d="M360 2940 l0 -420 420 0 420 0 0 420 0 420 -420 0 -420 0 0 -420z
m720 0 l0 -300 -300 0 -300 0 0 300 0 300 300 0 300 0 0 -300z"/>
<path d="M600 2940 l0 -180 180 0 180 0 0 180 0 180 -180 0 -180 0 0 -180z"/>
<path d="M1320 3300 l0 -60 180 0 180 0 0 -120 0 -120 -60 0 -60 0 0 60 0 60
-60 0 -60 0 0 -60 0 -60 60 0 60 0 0 -120 0 -120 -60 0 -60 0 0 -60 0 -60 -60
0 -60 0 0 -120 0 -120 60 0 60 0 0 -60 0 -60 60 0 60 0 0 -60 0 -60 -120 0
-120 0 0 60 0 60 -60 0 -60 0 0 60 0 60 -60 0 -60 0 0 -60 0 -60 -60 0 -60 0
0 60 0 60 -120 0 -120 0 0 -60 0 -60 -60 0 -60 0 0 60 0 60 -120 0 -120 0 0
-60 0 -60 120 0 120 0 0 -120 0 -120 -120 0 -120 0 0 -360 0 -360 60 0 60 0 0
120 0 120 60 0 60 0 0 -120 0 -120 60 0 60 0 0 120 0 120 60 0 60 0 0 -120 0
-120 60 0 60 0 0 180 0 180 60 0 60 0 0 -60 0 -60 60 0 60 0 0 -60 0 -60 -60
0 -60 0 0 -60 0 -60 120 0 120 0 0 -60 0 -60 60 0 60 0 0 -60 0 -60 60 0 60 0
0 -60 0 -60 -120 0 -120 0 0 -120 0 -120 60 0 60 0 0 -60 0 -60 -60 0 -60 0 0
-120 0 -120 180 0 180 0 0 60 0 60 -120 0 -120 0 0 60 0 60 60 0 60 0 0 120 0
120 60 0 60 0 0 -120 0 -120 120 0 120 0 0 60 0 60 -60 0 -60 0 0 60 0 60 60
0 60 0 0 60 0 60 60 0 60 0 0 -120 0 -120 60 0 60 0 0 -60 0 -60 -60 0 -60 0
0 -120 0 -120 60 0 60 0 0 120 0 120 120 0 120 0 0 60 0 60 120 0 120 0 0 60
0 60 120 0 120 0 0 300 0 300 60 0 60 0 0 -120 0 -120 120 0 120 0 0 -60 0
-60 60 0 60 0 0 60 0 60 -60 0 -60 0 0 120 0 120 60 0 60 0 0 120 0 120 -60 0
-60 0 0 60 0 60 60 0 60 0 0 180 0 180 -60 0 -60 0 0 60 0 60 60 0 60 0 0 60
0 60 -60 0 -60 0 0 -60 0 -60 -300 0 -300 0 0 60 0 60 -60 0 -60 0 0 -60 0
-60 -60 0 -60 0 0 180 0 180 -60 0 -60 0 0 -180 0 -180 -60 0 -60 0 0 60 0 60
-60 0 -60 0 0 60 0 60 60 0 60 0 0 120 0 120 -60 0 -60 0 0 -120 0 -120 -60 0
-60 0 0 60 0 60 -60 0 -60 0 0 60 0 60 60 0 60 0 0 60 0 60 60 0 60 0 0 60 0
60 120 0 120 0 0 -120 0 -120 60 0 60 0 0 240 0 240 -60 0 -60 0 0 -60 0 -60
-120 0 -120 0 0 60 0 60 60 0 60 0 0 60 0 60 -60 0 -60 0 0 -60 0 -60 -120 0
-120 0 0 60 0 60 -240 0 -240 0 0 -60z m600 -300 l0 -120 -60 0 -60 0 0 120 0
120 60 0 60 0 0 -120z m-240 -300 l0 -60 60 0 60 0 0 -180 0 -180 60 0 60 0 0
60 0 60 60 0 60 0 0 -60 0 -60 60 0 60 0 0 -60 0 -60 -180 0 -180 0 0 -60 0
-60 120 0 120 0 0 -60 0 -60 60 0 60 0 0 60 0 60 240 0 240 0 0 60 0 60 -60 0
-60 0 0 60 0 60 60 0 60 0 0 -60 0 -60 60 0 60 0 0 -60 0 -60 60 0 60 0 0 -60
0 -60 180 0 180 0 0 -60 0 -60 -60 0 -60 0 0 -60 0 -60 -120 0 -120 0 0 60 0
60 -60 0 -60 0 0 -120 0 -120 60 0 60 0 0 -60 0 -60 -60 0 -60 0 0 60 0 60
-60 0 -60 0 0 -60 0 -60 -60 0 -60 0 0 60 0 60 60 0 60 0 0 60 0 60 -60 0 -60
0 0 60 0 60 60 0 60 0 0 60 0 60 -120 0 -120 0 0 -60 0 -60 -60 0 -60 0 0 60
0 60 -60 0 -60 0 0 -120 0 -120 -60 0 -60 0 0 60 0 60 -60 0 -60 0 0 60 0 60
-60 0 -60 0 0 -240 0 -240 60 0 60 0 0 60 0 60 120 0 120 0 0 -60 0 -60 60 0
60 0 0 60 0 60 60 0 60 0 0 -60 0 -60 -60 0 -60 0 0 -240 0 -240 -120 0 -120
0 0 240 0 240 -60 0 -60 0 0 -120 0 -120 -240 0 -240 0 0 60 0 60 180 0 180 0
0 60 0 60 -240 0 -240 0 0 120 0 120 -120 0 -120 0 0 60 0 60 -240 0 -240 0 0
-60 0 -60 -60 0 -60 0 0 120 0 120 120 0 120 0 0 120 0 120 60 0 60 0 0 60 0
60 60 0 60 0 0 -120 0 -120 -60 0 -60 0 0 -60 0 -60 120 0 120 0 0 60 0 60 60
0 60 0 0 60 0 60 -60 0 -60 0 0 60 0 60 60 0 60 0 0 -60 0 -60 60 0 60 0 0
-60 0 -60 -60 0 -60 0 0 -60 0 -60 -60 0 -60 0 0 -60 0 -60 120 0 120 0 0 60
0 60 60 0 60 0 0 60 0 60 60 0 60 0 0 60 0 60 60 0 60 0 0 60 0 60 -60 0 -60
0 0 120 0 120 -60 0 -60 0 0 60 0 60 60 0 60 0 0 60 0 60 60 0 60 0 0 -60z
m720 -480 l0 -60 -60 0 -60 0 0 60 0 60 60 0 60 0 0 -60z m840 -120 l0 -60
-120 0 -120 0 0 60 0 60 120 0 120 0 0 -60z m0 -600 l0 -60 -60 0 -60 0 0 60
0 60 60 0 60 0 0 -60z m-480 -360 l0 -180 -180 0 -180 0 0 180 0 180 180 0
180 0 0 -180z m-480 -360 l0 -60 -60 0 -60 0 0 60 0 60 60 0 60 0 0 -60z"/>
<path d="M1560 2580 l0 -60 60 0 60 0 0 60 0 60 -60 0 -60 0 0 -60z"/>
<path d="M2640 1980 l0 -60 60 0 60 0 0 60 0 60 -60 0 -60 0 0 -60z"/>
<path d="M1440 1860 l0 -60 -60 0 -60 0 0 -60 0 -60 60 0 60 0 0 -60 0 -60
120 0 120 0 0 180 0 180 -120 0 -120 0 0 -60z"/>
<path d="M2520 1140 l0 -60 60 0 60 0 0 60 0 60 -60 0 -60 0 0 -60z"/>
<path d="M2520 2940 l0 -420 420 0 420 0 0 420 0 420 -420 0 -420 0 0 -420z
m720 0 l0 -300 -300 0 -300 0 0 300 0 300 300 0 300 0 0 -300z"/>
<path d="M2760 2940 l0 -180 180 0 180 0 0 180 0 180 -180 0 -180 0 0 -180z"/>
<path d="M360 780 l0 -420 420 0 420 0 0 420 0 420 -420 0 -420 0 0 -420z
m720 0 l0 -300 -300 0 -300 0 0 300 0 300 300 0 300 0 0 -300z"/>
<path d="M600 780 l0 -180 180 0 180 0 0 180 0 180 -180 0 -180 0 0 -180z"/>
<path d="M3120 780 l0 -60 -180 0 -180 0 0 -60 0 -60 -120 0 -120 0 0 -60 0
-60 -120 0 -120 0 0 -60 0 -60 180 0 180 0 0 60 0 60 120 0 120 0 0 -60 0 -60
60 0 60 0 0 60 0 60 120 0 120 0 0 -60 0 -60 60 0 60 0 0 240 0 240 -120 0
-120 0 0 -60z m-120 -240 l0 -60 -60 0 -60 0 0 60 0 60 60 0 60 0 0 -60z"/>
<path d="M1800 420 l0 -60 60 0 60 0 0 60 0 60 -60 0 -60 0 0 -60z"/>
</g>
</g></svg>
