<?xml version="1.0" standalone="no"?>
<!DOCTYPE svg PUBLIC "-//W3C//DTD SVG 20010904//EN"
 "http://www.w3.org/TR/2001/REC-SVG-20010904/DTD/svg10.dtd">
<svg version="1.0" xmlns="http://www.w3.org/2000/svg"
 width="75px" height="75px" viewBox="0 0 216.000000 216.000000"
 preserveAspectRatio="xMidYMid meet">
<metadata>
Created by potrace 1.16, written by Peter Selinger 2001-2019
</metadata><g><rect x="0" y="0" width="216" height="216" fill="#ffffff" fill-opacity="0" stroke-opacity="0" />
<g transform="translate(0.000000,216.000000) scale(0.050000,-0.050000)"
fill="#020304" stroke="none">
<path d="M420 3480 l0 -420 420 0 420 0 0 420 0 420 -420 0 -420 0 0 -420z
m720 0 l0 -300 -300 0 -300 0 0 300 0 300 300 0 300 0 0 -300z"/>
<path d="M660 3480 l0 -180 180 0 180 0 0 180 0 180 -180 0 -180 0 0 -180z"/>
<path d="M1380 3840 l0 -60 120 0 120 0 0 60 0 60 -120 0 -120 0 0 -60z"/>
<path d="M2340 3780 l0 -120 60 0 60 0 0 120 0 120 -60 0 -60 0 0 -120z"/>
<path d="M2580 3840 l0 -60 180 0 180 0 0 60 0 60 -180 0 -180 0 0 -60z"/>
<path d="M3060 3480 l0 -420 420 0 420 0 0 420 0 420 -420 0 -420 0 0 -420z
m720 0 l0 -300 -300 0 -300 0 0 300 0 300 300 0 300 0 0 -300z"/>
<path d="M3300 3480 l0 -180 180 0 180 0 0 180 0 180 -180 0 -180 0 0 -180z"/>
<path d="M1380 3480 l0 -180 60 0 60 0 0 -60 0 -60 -60 0 -60 0 0 -60 0 -60
60 0 60 0 0 -60 0 -60 -60 0 -60 0 0 -60 0 -60 -60 0 -60 0 0 60 0 60 -60 0
-60 0 0 -60 0 -60 60 0 60 0 0 -60 0 -60 -120 0 -120 0 0 -120 0 -120 -60 0
-60 0 0 60 0 60 -60 0 -60 0 0 60 0 60 -60 0 -60 0 0 60 0 60 120 0 120 0 0
60 0 60 -240 0 -240 0 0 -300 0 -300 60 0 60 0 0 60 0 60 180 0 180 0 0 -60 0
-60 60 0 60 0 0 60 0 60 60 0 60 0 0 -60 0 -60 60 0 60 0 0 -60 0 -60 -60 0
-60 0 0 -60 0 -60 120 0 120 0 0 60 0 60 60 0 60 0 0 -120 0 -120 -240 0 -240
0 0 120 0 120 -60 0 -60 0 0 -60 0 -60 -60 0 -60 0 0 60 0 60 -120 0 -120 0 0
-60 0 -60 60 0 60 0 0 -60 0 -60 -60 0 -60 0 0 -60 0 -60 60 0 60 0 0 60 0 60
120 0 120 0 0 -60 0 -60 -60 0 -60 0 0 -60 0 -60 60 0 60 0 0 -60 0 -60 -60 0
-60 0 0 -60 0 -60 -120 0 -120 0 0 -60 0 -60 420 0 420 0 0 -60 0 -60 60 0 60
0 0 120 0 120 60 0 60 0 0 -120 0 -120 60 0 60 0 0 -120 0 -120 -60 0 -60 0 0
60 0 60 -60 0 -60 0 0 -120 0 -120 -60 0 -60 0 0 -240 0 -240 60 0 60 0 0 180
0 180 60 0 60 0 0 -60 0 -60 60 0 60 0 0 -60 0 -60 -60 0 -60 0 0 -60 0 -60
60 0 60 0 0 60 0 60 60 0 60 0 0 60 0 60 -60 0 -60 0 0 60 0 60 -60 0 -60 0 0
60 0 60 240 0 240 0 0 -60 0 -60 -60 0 -60 0 0 -60 0 -60 60 0 60 0 0 -60 0
-60 -60 0 -60 0 0 -60 0 -60 60 0 60 0 0 60 0 60 120 0 120 0 0 60 0 60 -60 0
-60 0 0 60 0 60 60 0 60 0 0 60 0 60 120 0 120 0 0 60 0 60 60 0 60 0 0 60 0
60 60 0 60 0 0 -120 0 -120 60 0 60 0 0 -60 0 -60 -60 0 -60 0 0 -180 0 -180
120 0 120 0 0 120 0 120 -60 0 -60 0 0 60 0 60 60 0 60 0 0 60 0 60 120 0 120
0 0 -60 0 -60 -60 0 -60 0 0 -60 0 -60 60 0 60 0 0 60 0 60 120 0 120 0 0 -60
0 -60 -60 0 -60 0 0 -60 0 -60 -60 0 -60 0 0 -60 0 -60 60 0 60 0 0 60 0 60
60 0 60 0 0 60 0 60 60 0 60 0 0 -120 0 -120 60 0 60 0 0 120 0 120 60 0 60 0
0 240 0 240 -60 0 -60 0 0 60 0 60 60 0 60 0 0 60 0 60 -120 0 -120 0 0 180 0
180 60 0 60 0 0 180 0 180 60 0 60 0 0 120 0 120 -120 0 -120 0 0 60 0 60
-120 0 -120 0 0 -60 0 -60 60 0 60 0 0 -120 0 -120 60 0 60 0 0 -120 0 -120
-60 0 -60 0 0 60 0 60 -60 0 -60 0 0 60 0 60 -60 0 -60 0 0 60 0 60 -60 0 -60
0 0 60 0 60 -60 0 -60 0 0 -120 0 -120 120 0 120 0 0 -60 0 -60 -60 0 -60 0 0
-120 0 -120 -60 0 -60 0 0 -60 0 -60 -60 0 -60 0 0 120 0 120 60 0 60 0 0 60
0 60 -180 0 -180 0 0 -60 0 -60 60 0 60 0 0 -120 0 -120 -120 0 -120 0 0 120
0 120 -60 0 -60 0 0 -120 0 -120 -60 0 -60 0 0 240 0 240 300 0 300 0 0 60 0
60 -60 0 -60 0 0 60 0 60 60 0 60 0 0 120 0 120 60 0 60 0 0 -60 0 -60 120 0
120 0 0 60 0 60 60 0 60 0 0 120 0 120 120 0 120 0 0 60 0 60 -180 0 -180 0 0
-60 0 -60 -120 0 -120 0 0 60 0 60 -60 0 -60 0 0 120 0 120 -60 0 -60 0 0 120
0 120 60 0 60 0 0 120 0 120 -120 0 -120 0 0 -60 0 -60 -240 0 -240 0 0 60 0
60 -240 0 -240 0 0 -120 0 -120 -60 0 -60 0 0 60 0 60 -60 0 -60 0 0 60 0 60
-60 0 -60 0 0 -180z m600 -60 l0 -120 60 0 60 0 0 -180 0 -180 60 0 60 0 0
-60 0 -60 60 0 60 0 0 -120 0 -120 120 0 120 0 0 60 0 60 120 0 120 0 0 -60 0
-60 -120 0 -120 0 0 -60 0 -60 120 0 120 0 0 -60 0 -60 -60 0 -60 0 0 -60 0
-60 -180 0 -180 0 0 -60 0 -60 -60 0 -60 0 0 -240 0 -240 60 0 60 0 0 -60 0
-60 60 0 60 0 0 -60 0 -60 180 0 180 0 0 -60 0 -60 -180 0 -180 0 0 60 0 60
-60 0 -60 0 0 -120 0 -120 120 0 120 0 0 -60 0 -60 -120 0 -120 0 0 60 0 60
-60 0 -60 0 0 60 0 60 -60 0 -60 0 0 60 0 60 -120 0 -120 0 0 -60 0 -60 -60 0
-60 0 0 60 0 60 60 0 60 0 0 60 0 60 -60 0 -60 0 0 60 0 60 60 0 60 0 0 -60 0
-60 60 0 60 0 0 120 0 120 60 0 60 0 0 120 0 120 -60 0 -60 0 0 -60 0 -60 -60
0 -60 0 0 -60 0 -60 -60 0 -60 0 0 60 0 60 -120 0 -120 0 0 60 0 60 60 0 60 0
0 60 0 60 60 0 60 0 0 60 0 60 60 0 60 0 0 120 0 120 60 0 60 0 0 -60 0 -60
60 0 60 0 0 -60 0 -60 120 0 120 0 0 60 0 60 -60 0 -60 0 0 120 0 120 -240 0
-240 0 0 -120 0 -120 -60 0 -60 0 0 60 0 60 -60 0 -60 0 0 -60 0 -60 -60 0
-60 0 0 60 0 60 -120 0 -120 0 0 60 0 60 120 0 120 0 0 -60 0 -60 60 0 60 0 0
120 0 120 -60 0 -60 0 0 60 0 60 60 0 60 0 0 60 0 60 60 0 60 0 0 60 0 60 -60
0 -60 0 0 60 0 60 60 0 60 0 0 60 0 60 120 0 120 0 0 120 0 120 60 0 60 0 0
-120z m840 60 l0 -60 -60 0 -60 0 0 -60 0 -60 -120 0 -120 0 0 -60 0 -60 60 0
60 0 0 -60 0 -60 60 0 60 0 0 60 0 60 60 0 60 0 0 -120 0 -120 60 0 60 0 0
-60 0 -60 60 0 60 0 0 -60 0 -60 60 0 60 0 0 -60 0 -60 -60 0 -60 0 0 60 0 60
-60 0 -60 0 0 60 0 60 -120 0 -120 0 0 60 0 60 -60 0 -60 0 0 60 0 60 -60 0
-60 0 0 60 0 60 -60 0 -60 0 0 -60 0 -60 -60 0 -60 0 0 120 0 120 120 0 120 0
0 60 0 60 120 0 120 0 0 60 0 60 60 0 60 0 0 -60z m-1440 -1740 l0 -120 60 0
60 0 0 -60 0 -60 -240 0 -240 0 0 180 0 180 180 0 180 0 0 -120z m2040 60 l0
-60 60 0 60 0 0 -120 0 -120 -60 0 -60 0 0 120 0 120 -60 0 -60 0 0 60 0 60
60 0 60 0 0 -60z m-480 -240 l0 -60 -60 0 -60 0 0 60 0 60 60 0 60 0 0 -60z
m240 0 l0 -60 -60 0 -60 0 0 60 0 60 60 0 60 0 0 -60z m120 -360 l0 -180 -180
0 -180 0 0 180 0 180 180 0 180 0 0 -180z m360 -60 l0 -120 60 0 60 0 0 -180
0 -180 -60 0 -60 0 0 60 0 60 -60 0 -60 0 0 60 0 60 -60 0 -60 0 0 60 0 60 60
0 60 0 0 120 0 120 60 0 60 0 0 -120z"/>
<path d="M1860 3180 l0 -120 -60 0 -60 0 0 60 0 60 -60 0 -60 0 0 -60 0 -60
60 0 60 0 0 -60 0 -60 60 0 60 0 0 60 0 60 60 0 60 0 0 120 0 120 -60 0 -60 0
0 -120z"/>
<path d="M1500 2760 l0 -60 60 0 60 0 0 60 0 60 -60 0 -60 0 0 -60z"/>
<path d="M1980 2760 l0 -60 60 0 60 0 0 60 0 60 -60 0 -60 0 0 -60z"/>
<path d="M2460 2400 l0 -60 60 0 60 0 0 60 0 60 -60 0 -60 0 0 -60z"/>
<path d="M1860 2100 l0 -120 -60 0 -60 0 0 -60 0 -60 60 0 60 0 0 60 0 60 60
0 60 0 0 120 0 120 -60 0 -60 0 0 -120z"/>
<path d="M2100 1440 l0 -60 60 0 60 0 0 60 0 60 -60 0 -60 0 0 -60z"/>
<path d="M1140 1680 l0 -60 60 0 60 0 0 60 0 60 -60 0 -60 0 0 -60z"/>
<path d="M3060 1200 l0 -60 60 0 60 0 0 60 0 60 -60 0 -60 0 0 -60z"/>
<path d="M3540 960 l0 -60 60 0 60 0 0 60 0 60 -60 0 -60 0 0 -60z"/>
<path d="M3780 2820 l0 -120 -120 0 -120 0 0 -60 0 -60 120 0 120 0 0 -60 0
-60 60 0 60 0 0 60 0 60 -60 0 -60 0 0 60 0 60 60 0 60 0 0 120 0 120 -60 0
-60 0 0 -120z"/>
<path d="M420 1680 l0 -60 60 0 60 0 0 60 0 60 -60 0 -60 0 0 -60z"/>
<path d="M420 840 l0 -420 420 0 420 0 0 420 0 420 -420 0 -420 0 0 -420z
m720 0 l0 -300 -300 0 -300 0 0 300 0 300 300 0 300 0 0 -300z"/>
<path d="M660 840 l0 -180 180 0 180 0 0 180 0 180 -180 0 -180 0 0 -180z"/>
<path d="M2580 720 l0 -60 60 0 60 0 0 60 0 60 -60 0 -60 0 0 -60z"/>
<path d="M2580 480 l0 -60 60 0 60 0 0 60 0 60 -60 0 -60 0 0 -60z"/>
</g>
</g></svg>
