<?xml version="1.0" encoding="UTF-8"?>
<svg id="a" data-name="layer 1" xmlns="http://www.w3.org/2000/svg" width="280px" height="280px" viewBox="0 0 300 300">
  <g>
    <g>
      <path fill="#e2efdf" d="M149.04,202.25l5.78.05c2.21.02,4.17-1.03,5.72-2.55,1.98-1.94,2.54-4.72,1.4-7.26-1.38-3.37-4.64-5.01-8.21-5.03l-8.4-.04.03,31.25c0,.88.57,1.76,1.07,2.33.81.95,2.61.54,2.65,1.94l.04,2.04h-16.88s.1-2.67.1-2.67l1.91-.88c.6-.28,1.79-.99,1.78-1.9l-.27-29.57c-.5-1.51-1.81-2.24-3.48-2.08l-.07-3.21,30.03.06c2.71.6,4.99,1.99,6.83,3.99,2.1,2.01,3.18,5.42,2.68,8.19-1.02,5.66-3.77,8.45-9.44,9.61l-3.2.42,1.89,9.27c.55,2.69,2.31,4.91,5.07,5.51,2.51.55,5.69-.33,5.71.8l.04,2.47-11.92-.05c-3.73-.02-7.25-4.07-8.01-7.99l-2.84-14.71Z"/>
      <path fill="#e2efdf" d="M112.6,184.68h17.15c.25.76.32,1.78-.01,2.73-.81.28-2.08.61-2.33,1.57l-.18,25.58c-.01,1.56-1.19,2.95-2.16,4.02-1.43,1.57-3.11,2.66-5,3.64-5.96,3.08-12.9,3.39-19.43,1.9-3.23-.73-6.24-1.93-8.76-4.07-2.09-1.77-3.64-4.29-3.65-7.1l-.08-23.66c0-1.1-2.33-1.4-2.34-2.08l-.04-2.5,17.19-.05-.06,3.07-3.94,1c-.63.16-1.04.59-1.53,1.13l.07,27.27c0,1.57,1.63,2.78,2.76,3.48,1.67,1.04,3.39,1.42,5.27,1.76,3.68.68,7.44.09,10.42-2.24.96-.75,2.06-1.75,2.07-2.99l.02-5.64v-7.56s.11-13.96.11-13.96c-.67-1.03-1.72-1.43-2.85-1.68l-2.55-.58-.15-3.05Z"/>
    </g>
    <path fill="#e2efdf" d="M199.78,189.04c-.27-.77-.46-1.35-1.26-1.48-.73-.12-1.52.13-1.84.96-.95,2.48-1.35,5.02-1.86,7.67-1.02,6.07-2.1,11.95-3.5,17.95l-2.52,10.83h-14.18s.03-2.21.03-2.21c.03-2.3,2.99.09,4.96-2.79.8-1.18,1.24-2.4,1.66-3.83l6.86-31.48,13.63.02,12.92,40.3h-11.81s0-2.05,0-2.05c-.04-.53.31-.96.87-.97l4.36-.03c1.81-.01,1.15-2.97.46-5.16l-3.4-10.83c-1.79-5.69-3.4-11.29-5.39-16.9Z"/>
  </g>
  <g>
    <path fill="#e2efdf" d="M113.6,173.83c1.06-.51,1.85-1.08,2.64-1.81,3.44-3.19,6.62-6.52,9.74-10.04l3.86-4.36c3.11,2.76,6.98,3.92,10.92,2.23,2.74-1.18,5.13-2.86,7.29-4.91,5.71-5.41,8.89-12.7,9.61-20.52.52-5.62-1.22-11.03-4.91-15.36-4.03-4.73-9.54-8.07-15.52-9.82-3.78-1.11-7.46-1.53-11.35-1.56l-4.45-.04c-.66,0-1.25-.44-1.51-.81-1.88-2.68,5.95-8.09,8.84-9.89,1.85-.49,3.61-.22,5.46.33,4.73,1.45,8.87,4.05,12.65,7.25s6.97,6.98,9.5,11.31c4.51,7.71,4.73,17.8,4.01,26.61-.35,4.27-1.42,8.16-3.53,11.89-1.75,3.09-3.74,5.9-6.13,8.57-2.92,3.27-5.92,6.31-9.1,9.31-1.33,1.25-4.1,3.48-4.67,2.5-1.22-2.08.01-5.93-2.54-8.29-1.51-1.4-3.58.08-5.06,1.67l-4.74,5.07c-1.8,1.93-3.65,3.65-5.82,5.17-1.9,1.33-3.24.77-4.79-.67l-8.23-7.65c-1.14-1.06-2.18-2.06-3.24-3.22-1.74-1.9-3.56-3.64-4.95-5.83-.44-.7-.58-1.59-.35-2.35.4-1.35,3.04-1.41,3.2-2.68.14-1.16-.57-2.35-1.2-3.27-6.36-.55-10.92-6.19-12.84-11.98-1.79-5.38-1.21-10.28.99-15.46,1.94-4.56,4.67-8.61,7.86-12.39.32-.37.53-.76.19-1.18l-4.59-5.71c-1.74-2.16-2.41-4.88-2.23-7.65l.71-11.16c.06-.94.47-1.59,1.27-1.84.88-.28,1.54.11,2.14.81,4.41,5.11,8.57,10.35,11.4,16.48.15.32.59.44.8.39.31-.07.72-.37.72-.8l-.12-11.37,12.09-15.12c.41-.51.94-.66,1.53-.63.47.02,1.26.42,1.26,1.07v9.98s-.38,3.16-.38,3.16l-1.56,6.02c-.24.11-.08.75.13.69l9.07-2.64c.36-.11,1.12-.15,1.33.09.29.33-.13.78-.39.98-4.02,3.06-8.52,6.05-10.95,10.74-2.62,5.08-3.46,10.9-2.34,16.52.64,3.23,2.07,6.06,4.06,8.68,4.24,5.58,10.84,8.79,17.82,9.25.51.03.79.08.91.5.09.31.09.71-.26.96l-1.17.83c-2.05,1.17-4.27,1.67-6.58,2.07l-1.68.16c-1.53.15-2.89.26-4.4.04-1.2-.18-2.38-.1-3.64-.62l-1.58,5.54c-.1.37-.33.54-.64.58-.4.05-.63-.17-.75-.6-.57-2.08-1.86-6.75-3.09-7.2-1.12-.41-2.19.53-2.5,1.62-.74,2.55.82,5.61.4,8.65-.18,1.32-.96,2.53-2.28,2.92-1.47.44-3.26-5.04-3.81-7.24-.15-.26-.8-.23-1.11-.25-.24-2.28.72-4.46,2.52-5.95-4.37-.52-8.78-1.75-9.37-6.31-.23-1.78-.15-3.58.24-5.36l.92-4.3c.09-.43.72-.46,1.03-.4.5.1.61.5.75,1,1.46,5.33,4.51,11.7,9.72,13.83.74.15,1.6,0,2.4-.13-1.2-.96-2.12-1.89-3.12-2.86l-1.3-1.25c-2.8-3.23-5.01-6.92-5.69-11.17l-.87-5.42c-.04-.25-.34-.46-.51-.51-.22-.06-.56.09-.74.38-2.47,4.04-4.08,8.54-4.42,13.32l-.07,1.72c-.11,2.84.27,5.54,1.13,8.26,1.22,3.86,3.05,7.32,5.1,10.8l2.76,4.69c.4.68-.76,1.77-1.77,2.47s-1.89,1.81-1.8,3.16c.05.66.68,1.3,1.15,1.7l2.2,1.89,8.36,6.73Z"/>
    <path fill="#e2efdf" d="M186.35,157.39c4.84,4.95,11.93,7.69,18.54,9.59.49.14.64.64.55.95-.15.55-.5.71-1.06.72-6.86.12-13.56-1.3-19.73-4.35-5.02-2.49-10.76-6.94-13.58-11.76-3.52-6.03-4.68-13.21-5.75-20.07l-1.75-11.27c-2.2-11.24-9.57-20.63-20.02-25.29-1.18-.53-2.23-1.02-3.46-1.41l-2.43-.78c-.43-.14-.73-.56-.68-.93.06-.47.38-.71.86-.83,10.05-2.45,22.81-4.14,32.34.23,2.48,1.14,4.71,2.58,6.54,4.62,3.32,3.7,4.33,10.09,4.67,15.11s.25,9.78.08,14.74v2.87s-.12,2.05-.12,2.05l-.05,6.42c-.03,3.64.09,7.15.68,10.72.55,3.33,2.02,6.27,4.37,8.68Z"/>
  </g>
</svg>